<?xml version="1.0" standalone="no"?>
<!DOCTYPE svg PUBLIC "-//W3C//DTD SVG 20010904//EN"
 "http://www.w3.org/TR/2001/REC-SVG-20010904/DTD/svg10.dtd">
<svg version="1.0" xmlns="http://www.w3.org/2000/svg"
 width="559.000000pt" height="447.000000pt" viewBox="0 0 559.000000 447.000000"
 preserveAspectRatio="xMidYMid meet">

<g transform="translate(0.000000,447.000000) scale(0.100000,-0.100000)"
fill="#000000" stroke="none">
<path d="M2247 4078 c-11 -8 -21 -34 -25 -63 -7 -48 -8 -49 -52 -60 -52 -13
-73 -43 -65 -90 4 -27 -1 -35 -40 -68 -30 -25 -45 -46 -45 -61 0 -29 33 -72
69 -90 24 -13 27 -12 37 9 10 20 9 22 -4 18 -13 -5 -14 1 -8 38 9 55 36 103
62 107 10 2 36 8 57 13 36 9 37 11 37 54 0 24 -4 47 -10 50 -18 11 -11 35 10
35 11 0 20 5 20 10 0 6 8 10 18 10 9 0 30 7 46 15 25 13 32 13 43 2 18 -18 2
-101 -26 -131 -22 -24 -20 -50 5 -60 20 -8 34 25 34 79 0 25 7 57 16 70 14 21
14 30 4 54 -6 16 -20 37 -30 46 -25 23 -129 31 -153 13z"/>
<path d="M2450 3578 c-10 -24 -26 -72 -36 -106 -9 -35 -23 -66 -31 -69 -12 -5
-134 16 -199 33 -17 4 -22 -1 -32 -34 -21 -71 -16 -117 19 -151 l31 -31 209 0
c146 0 209 -3 209 -11 0 -6 -19 -71 -42 -145 -23 -74 -39 -137 -35 -140 9 -9
138 -35 147 -29 4 2 13 25 20 50 7 25 15 45 19 45 3 0 19 -30 35 -65 16 -36
35 -65 42 -65 27 0 125 44 120 54 -90 221 -115 298 -113 356 2 54 -1 64 -22
81 -13 10 -34 19 -48 19 -21 0 -23 3 -18 23 4 12 21 64 37 115 16 51 26 97 23
102 -4 6 -70 10 -161 10 l-155 0 -19 -42z m188 -50 c19 -19 14 -46 -9 -59 -18
-9 -25 -7 -41 9 -16 16 -18 23 -9 41 13 23 40 28 59 9z"/>
<path d="M2310 3460 c47 -26 64 -26 50 0 -8 15 -21 20 -48 20 l-37 -1 35 -19z"/>
<path d="M2540 2814 c-23 -58 -21 -59 115 -61 101 -1 125 1 125 12 0 24 -49
44 -80 32 -23 -9 -39 -6 -89 16 l-62 27 -9 -26z"/>
<path d="M2836 2824 c-3 -9 -6 -28 -6 -43 l0 -27 119 1 c66 0 122 3 126 7 4 4
-7 16 -25 27 -26 15 -38 17 -61 9 -23 -8 -39 -5 -85 16 -67 31 -60 30 -68 10z"/>
<path d="M1566 2801 c-24 -25 -27 -35 -22 -64 12 -65 81 -94 81 -34 -1 24 4
28 37 33 66 11 74 50 15 79 -46 23 -80 19 -111 -14z"/>
<path d="M1444 2639 c-23 -11 -50 -29 -60 -40 -19 -21 -18 -21 9 -43 l28 -23
-35 -93 c-19 -52 -34 -95 -32 -97 5 -5 250 -73 262 -73 7 0 14 17 17 38 2 20
13 66 24 102 16 56 22 65 41 63 17 -2 26 7 42 43 11 26 20 48 20 49 0 12 -126
74 -140 70 -10 -3 -25 1 -33 10 -22 21 -94 19 -143 -6z"/>
<path d="M2720 2119 c-19 -5 -41 -6 -47 -4 -8 3 -13 -4 -13 -18 0 -28 15 -51
27 -44 5 3 15 2 23 -3 7 -4 24 -4 37 1 30 11 53 2 53 -22 0 -17 3 -18 20 -9
21 11 29 70 10 70 -5 0 -10 7 -10 16 0 9 -6 14 -12 11 -7 -2 -22 -1 -33 3 -11
4 -36 3 -55 -1z"/>
<path d="M2904 1756 c3 -22 10 -44 15 -49 19 -19 19 -2 0 43 l-20 45 5 -39z"/>
<path d="M4315 1700 c-9 -15 6 -80 19 -80 6 0 16 -10 21 -22 6 -13 17 -23 25
-23 18 0 61 81 54 100 -11 26 -106 47 -119 25z"/>
<path d="M2566 1673 c-3 -3 -3 -10 0 -14 7 -12 34 -11 34 0 0 11 -26 22 -34
14z"/>
<path d="M2815 1554 l-80 -47 -111 38 c-87 30 -121 37 -154 32 -45 -6 -168
-62 -262 -119 l-57 -34 19 -32 c11 -18 25 -32 31 -32 6 0 47 16 91 36 44 20
82 33 85 30 4 -3 -3 -25 -14 -49 -30 -61 -56 -146 -49 -162 3 -8 1 -17 -4 -20
-6 -4 -10 -15 -10 -26 0 -18 6 -20 48 -17 42 3 47 6 51 28 1 14 8 28 14 32 6
3 32 53 58 110 l47 103 54 -1 c29 0 100 -4 158 -8 119 -8 140 -2 178 54 27 40
28 123 2 127 -8 2 -51 -18 -95 -43z"/>
<path d="M3935 1558 c2 -7 20 -66 40 -131 41 -132 57 -153 25 -31 -33 122 -51
174 -60 174 -5 0 -7 -6 -5 -12z"/>
<path d="M4312 1524 c-31 -22 -27 -36 6 -18 15 7 33 14 40 14 6 0 12 5 12 10
0 15 -33 12 -58 -6z"/>
<path d="M2030 1442 c0 -14 71 -113 86 -119 20 -7 48 17 34 31 -5 5 -10 18
-10 28 0 10 -10 20 -24 24 -14 3 -32 14 -42 25 -17 19 -44 26 -44 11z"/>
<path d="M1347 1403 c-14 -13 -6 -23 18 -23 16 0 25 6 25 15 0 15 -31 21 -43
8z"/>
<path d="M1570 1395 c0 -12 13 -15 58 -14 l57 1 -35 13 c-48 18 -80 18 -80 0z"/>
<path d="M3330 1340 c0 -12 -13 -25 -36 -36 -45 -22 -69 -71 -60 -126 4 -25 1
-46 -8 -61 -17 -27 -20 -160 -2 -153 6 3 28 10 50 17 21 7 40 19 43 26 3 7
-11 32 -31 56 -20 24 -36 51 -36 58 0 8 23 37 50 64 28 27 50 45 50 39 0 -5
-5 -15 -12 -22 -27 -27 13 -11 47 19 20 18 37 30 39 28 18 -25 46 -80 46 -93
0 -9 5 -16 11 -16 18 0 -2 -43 -38 -80 -18 -19 -32 -41 -31 -49 2 -7 24 -21
49 -31 l46 -17 7 80 c5 62 3 84 -8 102 -8 12 -16 47 -18 76 -3 51 -5 55 -43
76 -21 12 -43 31 -47 42 -10 29 -68 30 -68 1z"/>
<path d="M4037 1210 c3 -11 9 -20 13 -20 5 0 6 9 3 20 -3 11 -9 20 -13 20 -5
0 -6 -9 -3 -20z"/>
<path d="M3305 1170 c-3 -5 1 -10 9 -10 9 0 16 5 16 10 0 6 -4 10 -9 10 -6 0
-13 -4 -16 -10z"/>
<path d="M3406 1164 c7 -3 10 -14 7 -24 -3 -11 -1 -20 5 -20 5 0 10 11 10 25
0 17 -6 25 -17 24 -9 0 -11 -3 -5 -5z"/>
<path d="M4230 1144 c-6 -14 -33 -75 -61 -136 -45 -96 -54 -128 -76 -256 -13
-81 -22 -156 -19 -168 5 -19 1 -23 -39 -28 -60 -9 -57 -23 8 -31 28 -3 60 -9
70 -11 13 -4 17 1 17 20 0 16 6 26 14 26 10 0 18 22 26 73 7 39 20 110 30 156
26 119 73 175 91 107 12 -46 153 -286 167 -286 8 0 1 -16 -18 -40 -17 -22 -27
-40 -21 -40 8 0 100 51 120 67 3 2 -1 9 -7 15 -7 7 -12 21 -12 32 0 10 -27 70
-60 132 l-60 112 0 141 0 141 -80 0 c-78 0 -81 -1 -90 -26z"/>
<path d="M3310 1135 c0 -8 5 -15 10 -15 6 0 10 7 10 15 0 8 -4 15 -10 15 -5 0
-10 -7 -10 -15z"/>
<path d="M3340 790 c0 -11 6 -20 13 -20 19 0 27 10 20 26 -8 21 -33 17 -33 -6z"/>
<path d="M3608 713 c7 -3 16 -2 19 1 4 3 -2 6 -13 5 -11 0 -14 -3 -6 -6z"/>
<path d="M3325 651 c46 -16 54 -17 95 -3 25 8 47 16 49 18 2 2 -40 4 -95 3
l-99 -1 50 -17z"/>
</g>
</svg>
